<svg xmlns="http://www.w3.org/2000/svg" xmlns:xlink="http://www.w3.org/1999/xlink" width="389" zoomAndPan="magnify" viewBox="0 0 291.75 254.999984" height="340" preserveAspectRatio="xMidYMid meet" version="1.0"><defs><clipPath id="1b482a5e6e"><path d="M 0 6 L 212.441406 6 L 212.441406 248.894531 L 0 248.894531 Z M 0 6 " clip-rule="nonzero"/></clipPath><clipPath id="a47f5d7766"><path d="M 0 127.5 L 212.441406 6.105469 L 212.441406 248.894531 Z M 0 127.5 " clip-rule="nonzero"/></clipPath><clipPath id="084d50e4be"><path d="M 6.371094 0.109375 L 261.152344 0.109375 L 261.152344 254.890625 L 6.371094 254.890625 Z M 6.371094 0.109375 " clip-rule="nonzero"/></clipPath><clipPath id="7f216916be"><path d="M 133.761719 0.109375 C 63.40625 0.109375 6.371094 57.144531 6.371094 127.5 C 6.371094 197.855469 63.40625 254.890625 133.761719 254.890625 C 204.117188 254.890625 261.152344 197.855469 261.152344 127.5 C 261.152344 57.144531 204.117188 0.109375 133.761719 0.109375 Z M 133.761719 0.109375 " clip-rule="nonzero"/></clipPath><clipPath id="8194dc601c"><path d="M 55.078125 48.816406 L 212.441406 48.816406 L 212.441406 206.183594 L 55.078125 206.183594 Z M 55.078125 48.816406 " clip-rule="nonzero"/></clipPath><clipPath id="c4187e0269"><path d="M 133.761719 48.816406 C 90.304688 48.816406 55.078125 84.042969 55.078125 127.5 C 55.078125 170.957031 90.304688 206.183594 133.761719 206.183594 C 177.214844 206.183594 212.441406 170.957031 212.441406 127.5 C 212.441406 84.042969 177.214844 48.816406 133.761719 48.816406 Z M 133.761719 48.816406 " clip-rule="nonzero"/></clipPath><clipPath id="aba191aa63"><path d="M 133.761719 48.816406 L 291.125 48.816406 L 291.125 206.183594 L 133.761719 206.183594 Z M 133.761719 48.816406 " clip-rule="nonzero"/></clipPath><clipPath id="3c076305fb"><path d="M 212.441406 48.816406 C 168.988281 48.816406 133.761719 84.042969 133.761719 127.5 C 133.761719 170.957031 168.988281 206.183594 212.441406 206.183594 C 255.898438 206.183594 291.125 170.957031 291.125 127.5 C 291.125 84.042969 255.898438 48.816406 212.441406 48.816406 Z M 212.441406 48.816406 " clip-rule="nonzero"/></clipPath><clipPath id="c17d3bb117"><path d="M 163.734375 78.792969 L 261.152344 78.792969 L 261.152344 176.207031 L 163.734375 176.207031 Z M 163.734375 78.792969 " clip-rule="nonzero"/></clipPath><clipPath id="27399c0e26"><path d="M 212.441406 78.792969 C 185.542969 78.792969 163.734375 100.597656 163.734375 127.5 C 163.734375 154.402344 185.542969 176.207031 212.441406 176.207031 C 239.34375 176.207031 261.152344 154.402344 261.152344 127.5 C 261.152344 100.597656 239.34375 78.792969 212.441406 78.792969 Z M 212.441406 78.792969 " clip-rule="nonzero"/></clipPath><clipPath id="bcda7c6e19"><path d="M 231.175781 97.527344 L 291.125 97.527344 L 291.125 157.472656 L 231.175781 157.472656 Z M 231.175781 97.527344 " clip-rule="nonzero"/></clipPath><clipPath id="bd076581cd"><path d="M 261.152344 97.527344 C 244.597656 97.527344 231.175781 110.945312 231.175781 127.5 C 231.175781 144.054688 244.597656 157.472656 261.152344 157.472656 C 277.707031 157.472656 291.125 144.054688 291.125 127.5 C 291.125 110.945312 277.707031 97.527344 261.152344 97.527344 Z M 261.152344 97.527344 " clip-rule="nonzero"/></clipPath></defs><g clip-path="url(#1b482a5e6e)"><g clip-path="url(#a47f5d7766)"><path fill="#000000" d="M 0 248.894531 L 0 5.75 L 212.441406 5.75 L 212.441406 248.894531 Z M 0 248.894531 " fill-opacity="1" fill-rule="nonzero"/></g></g><g clip-path="url(#084d50e4be)"><g clip-path="url(#7f216916be)"><path stroke-linecap="butt" transform="matrix(0.749358, 0, 0, 0.749358, 6.369542, 0.109143)" fill="none" stroke-linejoin="miter" d="M 170.001793 0.000309642 C 76.114114 0.000309642 0.00207119 76.112352 0.00207119 170.000031 C 0.00207119 263.88771 76.114114 339.999753 170.001793 339.999753 C 263.889472 339.999753 340.001514 263.88771 340.001514 170.000031 C 340.001514 76.112352 263.889472 0.000309642 170.001793 0.000309642 Z M 170.001793 0.000309642 " stroke="#000000" stroke-width="8" stroke-opacity="1" stroke-miterlimit="4"/></g></g><g clip-path="url(#8194dc601c)"><g clip-path="url(#c4187e0269)"><path fill="#ec4e20" d="M 55.078125 48.816406 L 212.441406 48.816406 L 212.441406 206.183594 L 55.078125 206.183594 Z M 55.078125 48.816406 " fill-opacity="1" fill-rule="nonzero"/></g></g><g clip-path="url(#aba191aa63)"><g clip-path="url(#3c076305fb)"><path stroke-linecap="butt" transform="matrix(0.749358, 0, 0, 0.749358, 133.760375, 48.817403)" fill="none" stroke-linejoin="miter" d="M 104.997934 -0.00133004 C 47.010789 -0.00133004 0.00179264 47.007666 0.00179264 105.000024 C 0.00179264 162.992382 47.010789 210.001379 104.997934 210.001379 C 162.990292 210.001379 209.999289 162.992382 209.999289 105.000024 C 209.999289 47.007666 162.990292 -0.00133004 104.997934 -0.00133004 Z M 104.997934 -0.00133004 " stroke="#000000" stroke-width="8" stroke-opacity="1" stroke-miterlimit="4"/></g></g><g clip-path="url(#c17d3bb117)"><g clip-path="url(#27399c0e26)"><path fill="#016fb9" d="M 163.734375 78.792969 L 261.152344 78.792969 L 261.152344 176.207031 L 163.734375 176.207031 Z M 163.734375 78.792969 " fill-opacity="1" fill-rule="nonzero"/></g></g><g clip-path="url(#bcda7c6e19)"><g clip-path="url(#bd076581cd)"><path fill="#000000" d="M 231.175781 97.527344 L 291.125 97.527344 L 291.125 157.472656 L 231.175781 157.472656 Z M 231.175781 97.527344 " fill-opacity="1" fill-rule="nonzero"/></g></g></svg>